<?xml version="1.0" encoding="UTF-8" standalone="no"?>
<svg
   xmlns:dc="http://purl.org/dc/elements/1.1/"
   xmlns:cc="http://creativecommons.org/ns#"
   xmlns:rdf="http://www.w3.org/1999/02/22-rdf-syntax-ns#"
   xmlns:svg="http://www.w3.org/2000/svg"
   xmlns="http://www.w3.org/2000/svg"
   xml:space="preserve"
   style="enable-background:new 0 0 78 45;"
   viewBox="0 0 78 45"
   y="0px"
   x="0px"
   id="Calque_1"
   version="1.1"><metadata
   id="metadata105"><rdf:RDF><cc:Work
       rdf:about=""><dc:format>image/svg+xml</dc:format><dc:type
         rdf:resource="http://purl.org/dc/dcmitype/StillImage" /></cc:Work></rdf:RDF></metadata><defs
   id="defs103" />
<style
   id="style2"
   type="text/css">
	.st0{fill:#CBAA62;}
	.st1{fill:#3E6E83;}
</style>
<g
   id="g98">
	<g
   id="g66">
		<path
   id="path4"
   d="M9.34,21.27c-0.86,0.86-1.3,1.9-1.31,3.11v2.43H4.42c-0.49,0-0.9-0.18-1.24-0.53    c-0.35-0.35-0.52-0.77-0.52-1.26v-0.55c0.02-0.5,0.19-0.93,0.52-1.28c0.34-0.36,0.75-0.54,1.24-0.54h0.81v-2.68H4.42    c-1.22,0-2.27,0.43-3.13,1.3C0.43,22.15,0,23.19,0,24.43v0.59c0,1.22,0.43,2.27,1.29,3.15c0.86,0.86,1.91,1.3,3.13,1.3H17.6v-9.48    h-5.14C11.25,19.98,10.21,20.41,9.34,21.27 M14.93,26.8H10.7v-2.38c0-0.49,0.17-0.91,0.51-1.26c0.34-0.35,0.76-0.54,1.24-0.54    h2.47V26.8z"
   class="st0" />
		<path
   id="path6"
   d="M29.31,28.59c0.13-0.29,0.2-0.58,0.21-0.87V20h-2.67v6.8h-3.6h-0.2h-1.04v-11.2h-2.68V27.7    c0.01,0.29,0.08,0.59,0.21,0.88c0.27,0.58,0.73,0.88,1.38,0.88h2.13h0.2h4.69C28.59,29.46,29.05,29.17,29.31,28.59"
   class="st0" />
		<path
   id="path8"
   d="M40.43,26.8h-2.46h-0.06h-1.34v-6.82h-2.69v9.34c-0.03,0.47-0.22,0.89-0.56,1.24    c-0.35,0.37-0.75,0.55-1.22,0.55h-0.83v1.62h0.83c1.02,0,1.93-0.31,2.74-0.94c0.79-0.62,1.31-1.39,1.56-2.35h1.52h0.06h3.55    c0.65,0,1.11-0.29,1.37-0.87c0.13-0.29,0.2-0.58,0.21-0.87V20h-2.67V26.8z"
   class="st0" />
		<path
   id="path10"
   d="M44.77,17.26c0,0.8-0.65,1.46-1.45,1.46c-0.8,0-1.46-0.65-1.46-1.46c0-0.8,0.65-1.46,1.46-1.46    C44.12,15.81,44.77,16.46,44.77,17.26"
   class="st1" />
		<path
   id="path12"
   d="M41.86,17.26c0,0.8-0.66,1.46-1.46,1.46c-0.8,0-1.46-0.65-1.46-1.46c0-0.8,0.66-1.46,1.46-1.46    C41.21,15.81,41.86,16.46,41.86,17.26"
   class="st1" />
		<path
   id="path14"
   d="M29.33,31.78c0,0.81-0.65,1.46-1.46,1.46c-0.8,0-1.46-0.66-1.46-1.46c0-0.8,0.66-1.46,1.46-1.46    C28.68,30.32,29.33,30.98,29.33,31.78"
   class="st1" />
		<path
   id="path16"
   d="M26.41,31.78c0,0.81-0.65,1.46-1.45,1.46c-0.81,0-1.46-0.66-1.46-1.46c0-0.8,0.66-1.46,1.46-1.46    C25.76,30.32,26.41,30.98,26.41,31.78"
   class="st1" />
		<path
   id="path18"
   d="M15.91,17.26c0,0.8-0.65,1.46-1.46,1.46c-0.8,0-1.46-0.65-1.46-1.46c0-0.8,0.65-1.46,1.46-1.46    C15.26,15.81,15.91,16.46,15.91,17.26"
   class="st1" />
		<path
   id="path20"
   d="M13,17.26c0,0.8-0.65,1.46-1.46,1.46c-0.8,0-1.46-0.65-1.46-1.46c0-0.8,0.65-1.46,1.46-1.46    C12.35,15.81,13,16.46,13,17.26"
   class="st1" />
		<path
   id="path22"
   d="M4.16,35.43c0.15,0,0.24,0.08,0.27,0.24l0.27-0.03c-0.06-0.29-0.24-0.43-0.54-0.43    c-0.19,0-0.33,0.06-0.43,0.18c-0.09,0.11-0.13,0.25-0.13,0.42c0,0.08,0.02,0.17,0.04,0.24H3.36v0.28H4.7v-0.28H3.95    c-0.04-0.06-0.07-0.15-0.07-0.24C3.88,35.56,3.97,35.43,4.16,35.43"
   class="st1" />
		<path
   id="path24"
   d="M4.29,36.63v1.1c0,0.25-0.02,0.44-0.07,0.54c-0.08,0.16-0.25,0.24-0.48,0.24H3.45v0H2.56    c-0.06-1.45-0.69-2.17-1.87-2.17v0.37h0.15c0.47,0.03,0.82,0.22,1.04,0.59c0.19,0.3,0.28,0.71,0.28,1.21H0.07v0.39h3.3h0.08h0.42    c0.55,0,0.83-0.33,0.83-0.99v-1.27H4.29z"
   class="st1" />
		<path
   id="path26"
   d="M8.56,36.34c-0.73,0-1.19,0.54-1.19,1.27c0,0.36,0.1,0.66,0.28,0.88H6.69c-0.28,0-0.32,0-0.36-0.01    c-0.15-0.03-0.26-0.08-0.32-0.17c-0.07-0.11-0.11-0.3-0.11-0.55v-2.51H5.49v2.74c0,0.3,0.08,0.52,0.24,0.68    c0.14,0.14,0.31,0.21,0.51,0.21h0.31h0.13h1.87c0.71,0,1.17-0.55,1.17-1.28C9.73,36.84,9.28,36.34,8.56,36.34 M8.56,38.56    c-0.46,0-0.74-0.36-0.74-0.92c0-0.6,0.26-0.97,0.76-0.97c0.46,0,0.72,0.34,0.72,0.9C9.29,38.23,9.05,38.56,8.56,38.56"
   class="st1" />
		<rect
   id="rect28"
   height="3.64"
   width="0.4"
   class="st1"
   y="35.25"
   x="11.48" />
		<path
   id="path30"
   d="M16.89,38.5c-0.17-0.18-0.26-0.45-0.26-0.79c0-0.3,0.05-0.54,0.15-0.73c0.13-0.23,0.34-0.34,0.61-0.34    c0.4,0,0.64,0.19,0.7,0.6l0.48-0.05c-0.05-0.28-0.2-0.49-0.43-0.65c-0.21-0.14-0.46-0.21-0.75-0.21c-0.4,0-0.71,0.14-0.93,0.42    c-0.21,0.25-0.31,0.57-0.31,0.97c0,0.3,0.07,0.56,0.2,0.79h-0.62H15.5h-0.65c-0.06-1.45-0.69-2.17-1.87-2.17v0.37h0.15    c0.47,0.03,0.82,0.22,1.04,0.59c0.19,0.3,0.28,0.71,0.28,1.21h-2.08v0.39h3.14h0.25h2.85V38.5H16.89z"
   class="st1" />
		<path
   id="path32"
   d="M22.76,36.53h-0.75c-0.05-0.07-0.07-0.15-0.07-0.24c0-0.25,0.09-0.38,0.28-0.38c0.15,0,0.23,0.08,0.27,0.25    l0.27-0.03c-0.06-0.29-0.24-0.44-0.54-0.44c-0.36,0-0.56,0.23-0.56,0.61c0,0.09,0.01,0.17,0.04,0.24h-0.28v0.28h1.33V36.53z"
   class="st1" />
		<path
   id="path34"
   d="M24.89,36.41v-0.34c-1,0-1.58,0.56-1.66,1.71h1.48c0,1.02-0.56,1.66-1.45,1.66c-0.83,0-1.37-0.55-1.43-1.47    c-0.01-0.06-0.01-0.26-0.01-0.61h-0.4v0.54c0,1.09,0.79,1.92,1.82,1.92h0.04c1.04,0,1.82-0.84,1.82-1.92v-0.52h-1.38    C23.89,36.73,24.28,36.41,24.89,36.41"
   class="st1" />
		<path
   id="path36"
   d="M26.32,38.48c0,0.66-0.26,0.95-0.79,0.95v0.38c0.83-0.04,1.18-0.48,1.18-1.4v-2.08h-0.39V38.48z"
   class="st1" />
		<path
   id="path38"
   d="M30.58,36.34c-0.73,0-1.19,0.54-1.19,1.27c0,0.36,0.09,0.66,0.28,0.88H28.7c-0.28,0-0.32,0-0.36-0.01    c-0.15-0.03-0.26-0.08-0.32-0.17c-0.07-0.11-0.11-0.3-0.11-0.55v-2.51H27.5v2.74c0,0.3,0.08,0.52,0.24,0.68    c0.14,0.14,0.31,0.21,0.51,0.21h0.31h0.13h1.87c0.72,0,1.17-0.55,1.17-1.28C31.74,36.84,31.29,36.34,30.58,36.34 M30.57,38.56    c-0.46,0-0.74-0.36-0.74-0.92c0-0.6,0.26-0.97,0.76-0.97c0.46,0,0.72,0.34,0.72,0.9C31.31,38.23,31.06,38.56,30.57,38.56"
   class="st1" />
		<path
   id="path40"
   d="M35.99,36.33h-1.63c-0.8,0-1.2,0.51-1.2,1.56v1.91h0.39v-1.89c0-0.76,0.3-1.23,0.81-1.23h0.77    c-0.22,0.23-0.33,0.54-0.33,0.92c0,0.75,0.43,1.27,1.18,1.27c0.7,0,1.17-0.52,1.17-1.27C37.16,36.83,36.71,36.33,35.99,36.33     M35.99,38.51c-0.44,0-0.7-0.35-0.7-0.88c0-0.58,0.26-0.94,0.72-0.94c0.43,0,0.67,0.33,0.67,0.87    C36.69,38.19,36.45,38.51,35.99,38.51"
   class="st1" />
		<path
   id="path42"
   d="M43.28,35.25v2.48c0,0.25-0.03,0.44-0.09,0.54c-0.08,0.16-0.23,0.24-0.48,0.24h-0.26v0h-0.73    c0.07-0.16,0.11-0.36,0.11-0.6v-1.57h-0.39v1.39c0,0.25-0.03,0.44-0.09,0.55c-0.08,0.15-0.24,0.23-0.48,0.23h-0.25h-0.11h-0.62    v-1.05c0-0.74-0.39-1.13-1.01-1.13c-0.32,0-0.59,0.12-0.81,0.37c-0.21,0.25-0.32,0.55-0.32,0.91c0,0.36,0.1,0.67,0.31,0.91    c0.2,0.24,0.46,0.36,0.78,0.36h0.61c-0.09,0.36-0.32,0.55-0.69,0.55H38.7v0.38c0.65-0.04,1.03-0.35,1.14-0.92h0.66h0.11h1.73h0.1    h0.39c0.55,0,0.83-0.33,0.83-0.99v-2.65H43.28z M39.49,38.5l-0.65,0c-0.22,0-0.39-0.11-0.53-0.32c-0.11-0.17-0.16-0.37-0.16-0.6    c0-0.21,0.06-0.41,0.18-0.58c0.14-0.2,0.31-0.3,0.53-0.3c0.21,0,0.37,0.07,0.48,0.2c0.1,0.11,0.15,0.25,0.15,0.41V38.5z"
   class="st1" />
		<rect
   id="rect44"
   height="3.64"
   width="0.39"
   class="st1"
   y="35.25"
   x="44.43" />
		<path
   id="path46"
   d="M41.57,39.75c-0.13,0-0.23-0.11-0.23-0.24c0-0.13,0.1-0.23,0.23-0.23c0.13,0,0.23,0.1,0.23,0.23    C41.81,39.64,41.7,39.75,41.57,39.75"
   class="st1" />
		<path
   id="path48"
   d="M40.94,39.75c-0.13,0-0.23-0.11-0.23-0.24c0-0.13,0.1-0.23,0.23-0.23c0.13,0,0.23,0.1,0.23,0.23    C41.17,39.64,41.07,39.75,40.94,39.75"
   class="st1" />
		<path
   id="path50"
   d="M30.89,35.92c-0.13,0-0.23-0.1-0.23-0.23c0-0.13,0.1-0.23,0.23-0.23c0.13,0,0.23,0.1,0.23,0.23    C31.12,35.82,31.02,35.92,30.89,35.92"
   class="st1" />
		<path
   id="path52"
   d="M30.25,35.92c-0.13,0-0.23-0.1-0.23-0.23c0-0.13,0.1-0.23,0.23-0.23c0.13,0,0.23,0.1,0.23,0.23    C30.49,35.82,30.38,35.92,30.25,35.92"
   class="st1" />
		<path
   id="path54"
   d="M8.88,35.92c-0.13,0-0.23-0.1-0.23-0.23c0-0.13,0.1-0.23,0.23-0.23c0.13,0,0.23,0.1,0.23,0.23    C9.11,35.82,9,35.92,8.88,35.92"
   class="st1" />
		<path
   id="path56"
   d="M8.24,35.92c-0.13,0-0.23-0.1-0.23-0.23c0-0.13,0.1-0.23,0.23-0.23c0.13,0,0.23,0.1,0.23,0.23    C8.47,35.82,8.37,35.92,8.24,35.92"
   class="st1" />
		<path
   id="path58"
   d="M17.37,35.92c-0.13,0-0.23-0.1-0.23-0.23c0-0.13,0.1-0.23,0.23-0.23s0.23,0.1,0.23,0.23    C17.61,35.81,17.5,35.92,17.37,35.92"
   class="st1" />
		<path
   id="path60"
   d="M20.68,38.89c-0.13,0-0.23-0.1-0.23-0.23c0-0.13,0.1-0.23,0.23-0.23c0.13,0,0.23,0.1,0.23,0.23    C20.91,38.78,20.8,38.89,20.68,38.89"
   class="st1" />
		<path
   id="path62"
   d="M20.04,38.89c-0.13,0-0.23-0.1-0.23-0.23c0-0.13,0.1-0.23,0.23-0.23c0.13,0,0.23,0.1,0.23,0.23    C20.27,38.78,20.17,38.89,20.04,38.89"
   class="st1" />
		<path
   id="path64"
   d="M19.4,38.89c-0.13,0-0.23-0.1-0.23-0.23c0-0.13,0.1-0.23,0.23-0.23c0.13,0,0.23,0.1,0.23,0.23    C19.63,38.78,19.53,38.89,19.4,38.89"
   class="st1" />
	</g>
	<g
   id="g96">
		<path
   id="path68"
   d="M78,32.35c0,1.56-0.29,3.05-0.81,4.43c-0.05,0.12-0.1,0.25-0.15,0.37c-0.07,0.17-0.15,0.34-0.23,0.51    c-0.1,0.21-0.2,0.41-0.31,0.61c-0.05,0.1-0.11,0.19-0.16,0.29l-0.98-1.46l-0.12-0.19l-0.5-0.75c0.03-0.07,0.06-0.14,0.09-0.21    c0.01-0.03,0.02-0.05,0.03-0.08c0.12-0.32,0.23-0.64,0.31-0.98c0.13-0.49,0.22-0.98,0.27-1.49c0.04-0.34,0.06-0.7,0.06-1.05    c0-1.26-0.23-2.46-0.66-3.57c-0.82-2.15-2.37-3.94-4.33-5.08c-0.77-0.45-1.61-0.79-2.5-1.02v-7.8h-4.99v7.8    c-0.88,0.23-1.72,0.57-2.5,1.02c-1.96,1.14-3.5,2.92-4.33,5.06c-0.43,1.11-0.66,2.32-0.66,3.58c0,0.88,0.11,1.73,0.33,2.54v0    c0.09,0.33,0.19,0.66,0.31,0.98c0.01,0.03,0.02,0.05,0.03,0.08c0.03,0.07,0.05,0.14,0.08,0.21l-0.62,0.93l-0.98,1.46l0,0    c-0.06-0.09-0.11-0.19-0.16-0.29c-0.11-0.2-0.21-0.41-0.31-0.62c-0.08-0.17-0.15-0.34-0.22-0.5v0c-0.05-0.12-0.1-0.24-0.15-0.37    c-0.52-1.38-0.81-2.87-0.81-4.43c0-0.52,0.03-1.02,0.1-1.53v0c0.54-4.45,3.43-8.18,7.39-9.91v-6.03h-1.25    c-0.69,0-1.25-0.56-1.25-1.25c0-0.69,0.56-1.25,1.25-1.25h12.48c0.69,0,1.25,0.56,1.25,1.25c0,0.69-0.56,1.25-1.25,1.25h-1.25    v6.03c1.95,0.85,3.63,2.18,4.91,3.85C77.04,26.85,78,29.49,78,32.35"
   class="st1" />
		<path
   id="path70"
   d="M77.67,42.22c-0.1-0.03-0.21-0.06-0.31-0.08c-0.2-0.05-0.4-0.09-0.61-0.13c-0.43-0.08-0.86-0.14-1.3-0.17    c-0.14-0.01-0.28-0.02-0.41-0.03h0c-0.25-0.01-0.5-0.01-0.75-0.01h0c-0.03,0-0.05,0-0.08,0c-0.2,0-0.39,0.01-0.58,0.03    c-0.88,0.06-1.73,0.21-2.55,0.44c-0.31,0.09-0.62,0.19-0.93,0.3c-0.9,0.33-1.75,0.76-2.54,1.28c-0.17,0.11-0.33,0.23-0.49,0.34    c-0.26,0.19-0.5,0.38-0.74,0.59c-0.01,0-0.01,0-0.01,0c0.29-0.42,0.61-0.82,0.95-1.2c0.66-0.73,1.4-1.38,2.22-1.94    c0,0,0.01,0,0.01,0c0.06-0.05,0.13-0.09,0.19-0.14h0c0.05-0.03,0.1-0.06,0.15-0.1c0.15-0.09,0.31-0.18,0.47-0.26    c0.84-0.42,1.79-0.66,2.79-0.66c0.09,0,0.18,0,0.27,0.01c0.27,0.01,0.54,0.04,0.8,0.09l-0.53-0.78l-0.15-0.23l-0.06-0.09    l-0.32-0.47l-0.09-0.14l-0.9-1.34l-0.7-1.03c0.05,0,0.09,0,0.13,0c0.09,0,0.18,0,0.27,0c0.32,0.01,0.64,0.02,0.95,0.05    c0.4,0.04,0.78,0.1,1.17,0.17l0.28,0.42l0.51,0.76l0.47,0.7l0.54,0.81l0.05,0.07l0.75,1.12h0l0.31,0.46L77.67,42.22z"
   class="st0" />
		<path
   id="path72"
   d="M72.79,39.59c-0.15,0.01-0.3,0.02-0.44,0.04c-0.91,0.11-1.75,0.42-2.5,0.88c0,0,0,0,0,0    c-0.06,0.04-0.13,0.08-0.19,0.12c-0.2,0.13-0.38,0.26-0.57,0.4c-0.01,0.01-0.02,0.01-0.03,0.02c-0.41,0.3-0.79,0.63-1.15,0.98v0    c-0.27,0.26-0.52,0.52-0.76,0.8c-0.45,0.52-0.86,1.07-1.21,1.66v-8.04c0.06-0.08,0.12-0.15,0.19-0.22    c0.42-0.44,0.89-0.82,1.42-1.13c0.55-0.32,1.14-0.55,1.77-0.69l0.82,1.22l0.6,0.9l1,1.5l0.79,1.19l0.09,0.13L72.79,39.59z"
   class="st1" />
		<path
   id="path74"
   d="M65.09,36.45v8.05c-0.23-0.39-0.49-0.76-0.77-1.12c-0.14-0.18-0.29-0.36-0.44-0.54    c-0.24-0.28-0.49-0.55-0.76-0.8c-0.36-0.35-0.75-0.68-1.15-0.98c-0.19-0.14-0.38-0.28-0.58-0.41h0c-0.07-0.05-0.13-0.09-0.2-0.13    l0,0c-0.74-0.46-1.59-0.77-2.49-0.88c-0.15-0.02-0.29-0.03-0.44-0.04l0.16-0.24l0.08-0.13l0.79-1.19l1-1.5l0.6-0.9l0.82-1.22    c0.5,0.11,0.97,0.28,1.42,0.5c0.67,0.33,1.26,0.78,1.77,1.32v0C64.97,36.31,65.03,36.38,65.09,36.45"
   class="st1" />
		<path
   id="path76"
   d="M64.68,44.8c-0.01,0-0.01,0-0.01,0c-0.24-0.2-0.49-0.4-0.74-0.59c-0.14-0.1-0.27-0.19-0.42-0.29    c-0.03-0.02-0.05-0.03-0.08-0.05c-0.79-0.52-1.64-0.96-2.54-1.29c-0.31-0.12-0.61-0.22-0.93-0.3c-0.82-0.23-1.67-0.38-2.55-0.44    c-0.19-0.01-0.38-0.02-0.57-0.03c-0.03,0-0.06,0-0.08,0h0c-0.25,0-0.5,0-0.75,0.01h0c-0.14,0.01-0.28,0.02-0.42,0.03    c-0.44,0.03-0.87,0.09-1.29,0.17c-0.21,0.03-0.41,0.08-0.61,0.13c-0.11,0.02-0.21,0.05-0.31,0.08l0.77-1.14l0.31-0.46l0,0    l0.75-1.12l0.05-0.07l0.54-0.81l0.98-1.46l0.28-0.42c0.38-0.08,0.77-0.13,1.16-0.17c0.32-0.03,0.64-0.05,0.95-0.05    c0.09,0,0.18,0,0.27,0c0.04,0,0.09,0,0.13,0l-0.69,1.03l-0.9,1.34l-0.09,0.14l-0.38,0.56l-0.15,0.23l-0.52,0.78    c0.26-0.05,0.53-0.08,0.8-0.09c0.09-0.01,0.18-0.01,0.27-0.01c1,0,1.95,0.24,2.79,0.66c0.16,0.08,0.32,0.17,0.47,0.26    c0.05,0.03,0.1,0.06,0.15,0.1l0,0c0.07,0.04,0.13,0.09,0.2,0.14c0,0,0,0,0,0c0.83,0.56,1.57,1.22,2.22,1.94    c0.04,0.04,0.07,0.08,0.1,0.12C64.14,44.06,64.42,44.42,64.68,44.8"
   class="st0" />
		<path
   id="path78"
   d="M74.55,32.35c0,0.68-0.07,1.33-0.21,1.96c-0.06,0.3-0.14,0.59-0.24,0.87c-0.01,0.03-0.02,0.05-0.03,0.08    c-0.05,0.16-0.12,0.33-0.18,0.49c-0.2-0.04-0.4-0.07-0.6-0.09c-0.01,0-0.01,0-0.01,0c-0.55-0.07-1.1-0.1-1.67-0.1    c-0.12,0-0.24,0-0.36,0.01l-0.86-1.28l-0.6-0.9l0,0c-0.12,0.02-0.24,0.03-0.36,0.06c-0.22,0.04-0.43,0.08-0.65,0.15    c-0.31,0.09-0.62,0.2-0.92,0.32c-0.18,0.08-0.35,0.16-0.52,0.25c-0.5,0.26-0.96,0.58-1.38,0.95c-0.15,0.13-0.29,0.27-0.42,0.41    c-0.14-0.14-0.28-0.28-0.43-0.41c-0.4-0.36-0.85-0.67-1.33-0.92c-0.16-0.08-0.31-0.16-0.48-0.23c0.16-0.14,0.26-0.34,0.26-0.57    c0-0.43-0.35-0.78-0.78-0.78c-0.43,0-0.78,0.35-0.78,0.78c0,0.05,0,0.09,0.01,0.13c-0.12-0.03-0.25-0.05-0.38-0.07    c-0.08-0.02-0.15-0.03-0.23-0.04c-0.04-0.01-0.09-0.01-0.13-0.02l0,0l-0.61,0.9l-0.86,1.28c-0.12,0-0.24-0.01-0.37-0.01    c-0.56,0-1.12,0.04-1.66,0.1c-0.01,0-0.01,0-0.02,0c-0.2,0.02-0.4,0.05-0.6,0.09c-0.07-0.16-0.13-0.33-0.18-0.49    c-0.01-0.03-0.02-0.05-0.03-0.08c-0.1-0.29-0.18-0.57-0.24-0.87c-0.14-0.63-0.21-1.29-0.21-1.97c0-1.34,0.29-2.61,0.82-3.76    c0.81-0.26,1.66-0.39,2.55-0.39c0.56,0,1.12,0.06,1.66,0.16c1.21,0.24,2.33,0.74,3.29,1.44c0.1,0.07,0.2,0.14,0.29,0.22    c0.15,0.12,0.3,0.24,0.44,0.37c0.01,0,0.01,0.01,0.02,0.02c0.01,0.01,0.03,0.03,0.04,0.04c0.05,0.04,0.09,0.08,0.13,0.12    c0.07,0.06,0.14,0.12,0.22,0.18c0.46,0.38,0.99,0.7,1.56,0.94c0.2,0.08,0.4,0.16,0.61,0.22c0.09,0.47,0.46,0.84,0.92,0.96    c0.1,0.03,0.2,0.04,0.3,0.04c0.04,0,0.08,0,0.12-0.01c0.47-0.04,0.86-0.34,1.03-0.76c0.13-0.01,0.26-0.03,0.39-0.05    c0.34-0.05,0.67-0.13,0.99-0.24c0.94-0.31,1.77-0.84,2.45-1.52C74.47,30.98,74.55,31.65,74.55,32.35"
   class="st0" />
		<path
   id="path80"
   d="M69.98,28.57c-0.1,0-0.21,0-0.31,0.01c-1.28,0.06-2.47,0.51-3.43,1.23c-0.1,0.07-0.2,0.15-0.3,0.23    c-0.14,0.12-0.27,0.23-0.39,0.36c0.01,0.01,0.03,0.03,0.04,0.04c0.05,0.04,0.09,0.08,0.13,0.12c0.07,0.06,0.14,0.12,0.22,0.18    c0.46,0.38,0.99,0.7,1.56,0.94c0.2,0.08,0.4,0.16,0.61,0.22c0.09,0.47,0.46,0.84,0.92,0.96c0.1,0.03,0.2,0.04,0.3,0.04    c0.04,0,0.08,0,0.12-0.01c0.47-0.04,0.86-0.34,1.03-0.76c0.13-0.01,0.26-0.03,0.39-0.05c0.34-0.05,0.67-0.13,0.99-0.24    c0.94-0.31,1.77-0.84,2.45-1.52v0C73.2,29.23,71.67,28.57,69.98,28.57"
   class="st1" />
		<path
   id="path82"
   d="M63.55,33.37c0,0.23-0.1,0.43-0.26,0.57c-0.01-0.01-0.03-0.02-0.05-0.02c-0.02-0.01-0.03-0.02-0.05-0.03    c-0.13-0.05-0.26-0.11-0.39-0.15c-0.17-0.07-0.35-0.12-0.53-0.17c-0.08-0.02-0.16-0.04-0.25-0.07c-0.01,0-0.01,0-0.02,0    c-0.01-0.04-0.01-0.09-0.01-0.13c0-0.43,0.35-0.78,0.78-0.78C63.2,32.6,63.55,32.94,63.55,33.37"
   class="st1" />
		<path
   id="path84"
   d="M63.47,6.96c-0.84,0-1.51,0.68-1.51,1.51c0,0.84,0.68,1.51,1.51,1.51c0.83,0,1.51-0.68,1.51-1.51    C64.98,7.63,64.3,6.96,63.47,6.96 M63.22,9.83c-0.07-0.07-0.14-0.13-0.21-0.19c0.05-0.07,0.1-0.12,0.14-0.17    c0.07,0.06,0.13,0.12,0.2,0.19C63.31,9.73,63.27,9.78,63.22,9.83 M63.57,9.8c-0.07-0.07-0.14-0.13-0.21-0.19    c0.05-0.07,0.09-0.12,0.14-0.17c0.07,0.06,0.14,0.12,0.21,0.19C63.65,9.71,63.62,9.76,63.57,9.8 M64.06,8.45    c0.04,0.04,0.08,0.1,0.08,0.2c0,0.1-0.06,0.25-0.15,0.33c-0.18,0.16-0.45,0.3-0.69,0.3c-0.42,0-0.62-0.28-0.62-0.66    c0-0.17,0.04-0.31,0.1-0.44l0.07,0.02c-0.04,0.12-0.06,0.22-0.06,0.31c0,0.34,0.23,0.52,0.53,0.52c0.11,0,0.3-0.04,0.48-0.15    c0.12-0.07,0.22-0.15,0.22-0.18c0-0.05-0.13-0.09-0.28-0.12c-0.16-0.02-0.28-0.06-0.33-0.11c-0.04-0.04-0.06-0.09-0.06-0.16    c0-0.18,0.07-0.33,0.2-0.46c0.13-0.13,0.32-0.26,0.44-0.26c0.06,0,0.1,0.03,0.13,0.09c0.03,0.06,0.04,0.12,0.04,0.17    c0,0.04-0.04,0.14-0.07,0.2l-0.03,0.01c-0.03-0.15-0.08-0.23-0.13-0.23c-0.08,0-0.19,0.05-0.29,0.13    c-0.1,0.08-0.17,0.17-0.17,0.23C63.47,8.37,63.94,8.35,64.06,8.45"
   class="st0" />
		<path
   id="path86"
   d="M64.27,0.2c-0.68,0-1.24,0.56-1.24,1.24c0,0.69,0.56,1.24,1.24,1.24c0.69,0,1.24-0.56,1.24-1.24    C65.51,0.76,64.95,0.2,64.27,0.2 M64.43,0.84c0.06,0.05,0.11,0.1,0.17,0.16c-0.04,0.06-0.07,0.1-0.11,0.14    c-0.06-0.06-0.12-0.1-0.18-0.15C64.35,0.93,64.39,0.88,64.43,0.84 M64.15,0.86c0.06,0.05,0.11,0.1,0.17,0.16    c-0.04,0.06-0.07,0.1-0.11,0.14c-0.06-0.06-0.11-0.1-0.17-0.15C64.07,0.94,64.11,0.9,64.15,0.86 M65.06,1.96    c-0.13,0.08-0.51,0.18-0.8,0.18c-0.41,0-0.72-0.15-0.72-0.51c0-0.12,0.03-0.24,0.09-0.36l0.06,0.02    c-0.03,0.08-0.04,0.16-0.04,0.22c0,0.3,0.29,0.42,0.66,0.42c0.17,0,0.34-0.03,0.5-0.06c0.07-0.02,0.14-0.03,0.2-0.06    c0.01,0,0.02-0.01,0.02-0.01c0-0.07-0.07-0.22-0.15-0.37c0.04-0.06,0.07-0.12,0.11-0.17h0.01c0.07,0.12,0.15,0.3,0.15,0.45    C65.13,1.82,65.1,1.89,65.06,1.96"
   class="st0" />
		<path
   id="path88"
   d="M68,3.64c-0.68,0-1.23,0.55-1.23,1.23c0,0.68,0.55,1.23,1.23,1.23c0.68,0,1.23-0.55,1.23-1.23    C69.22,4.19,68.67,3.64,68,3.64 M68.4,4.94c0,0.13-0.07,0.27-0.19,0.41c-0.09,0.09-0.17,0.13-0.24,0.13    c-0.11,0-0.23-0.04-0.38-0.11l0.02-0.05c0.04,0.02,0.1,0.03,0.16,0.03c0.21,0,0.42-0.18,0.51-0.39C68.3,4.92,68.3,4.9,68.3,4.88    c0-0.03-0.01-0.05-0.02-0.08c-0.05-0.12-0.11-0.22-0.17-0.32c0.03-0.06,0.07-0.12,0.1-0.18l0.01,0l0.1,0.2    c0.04,0.07,0.07,0.15,0.07,0.28V4.94z"
   class="st1" />
		<path
   id="path90"
   d="M65.99,18.51c-0.7,0-1.26,0.57-1.26,1.26c0,0.7,0.57,1.26,1.26,1.26c0.7,0,1.26-0.57,1.26-1.26    C67.25,19.07,66.68,18.51,65.99,18.51 M66.08,20.3c0,0.08-0.05,0.15-0.13,0.24l-0.02-0.01c0.01-0.09,0.02-0.2,0.02-0.3v-0.15    c0-0.28-0.03-0.67-0.06-0.93c0.04-0.05,0.1-0.12,0.15-0.16l0.01,0c0.03,0.33,0.04,0.71,0.04,1.06    C66.09,20.15,66.08,20.24,66.08,20.3"
   class="st0" />
		<path
   id="path92"
   d="M63.73,26.3c-0.1,0-0.21,0.08-0.21,0.16c0,0.07,0.1,0.16,0.35,0.16c0.06,0,0.11,0,0.16-0.01    C63.96,26.41,63.86,26.3,63.73,26.3"
   class="st1" />
		<path
   id="path94"
   d="M63.41,25.03c-0.81,0-1.47,0.66-1.47,1.47c0,0.81,0.66,1.47,1.47,1.47c0.82,0,1.47-0.66,1.47-1.47    C64.88,25.69,64.22,25.03,63.41,25.03 M63.79,25.45c0.07,0.05,0.13,0.11,0.2,0.19c-0.05,0.07-0.08,0.12-0.14,0.16    c-0.07-0.07-0.13-0.12-0.2-0.18C63.7,25.55,63.74,25.49,63.79,25.45 M63.45,25.47c0.07,0.05,0.13,0.11,0.2,0.19    c-0.05,0.07-0.08,0.11-0.13,0.16c-0.07-0.07-0.13-0.12-0.2-0.18C63.36,25.57,63.4,25.52,63.45,25.47 M64.16,27.08    c-0.01,0.06-0.07,0.14-0.13,0.19c-0.17,0.15-0.44,0.29-0.74,0.29c-0.34,0-0.66-0.23-0.66-0.66c0-0.18,0.04-0.36,0.11-0.49    l0.07,0.02c-0.04,0.1-0.06,0.2-0.06,0.29c0,0.37,0.22,0.59,0.55,0.59c0.16,0,0.37-0.04,0.56-0.17c0.1-0.07,0.21-0.16,0.21-0.21    c0-0.03-0.01-0.07-0.02-0.1c-0.06,0.01-0.13,0.02-0.2,0.02c-0.13,0-0.24-0.03-0.32-0.08c-0.1-0.07-0.12-0.16-0.12-0.29    c0-0.06,0.03-0.14,0.06-0.2c0.06-0.11,0.17-0.21,0.29-0.21c0.14,0,0.25,0.11,0.34,0.34c0.03,0.1,0.08,0.28,0.08,0.43    C64.18,26.92,64.18,27.01,64.16,27.08"
   class="st1" />
	</g>
</g>
</svg>